<?xml version="1.0"?>
<svg xmlns="http://www.w3.org/2000/svg" xmlns:xlink="http://www.w3.org/1999/xlink" xmlns:svgjs="http://svgjs.com/svgjs" version="1.1" width="512" height="512" x="0" y="0" viewBox="0 0 512.022 512.022" style="enable-background:new 0 0 512 512" xml:space="preserve" class=""><g><g xmlns="http://www.w3.org/2000/svg"><g><path d="m374.686 190.48-27.697-43.868-51.839-2.053c-12.398-.491-18.879-15.03-10.941-24.576l33.161-39.898-14.067-49.937c-3.363-11.941 8.46-22.601 19.992-18l48.192 19.209 43.146-28.81c10.321-6.889 24.107 1.062 23.298 13.451l-3.377 51.77 40.732 32.132c9.742 7.686 6.438 23.255-5.593 26.314l-50.28 12.786-17.972 48.667c-4.286 11.61-20.107 13.34-26.755 2.813z" fill="#19c85b" data-original="#000000" style="" class=""/></g><path d="m91.011 422.022c8.284 0 15 6.716 15 15v60c0 8.284-6.716 15-15 15h-76c-8.28 0-15-6.72-15-15v-60c0-8.28 6.72-15 15-15z" fill="#19c85b" data-original="#000000" style="" class=""/><path d="m226.011 362.022c8.284 0 15 6.716 15 15v120c0 8.284-6.716 15-15 15h-75c-8.284 0-15-6.716-15-15v-120c0-8.28 6.72-15 15-15z" fill="#19c85b" data-original="#000000" style="" class=""/><path d="m361.011 302.022c8.284 0 15 6.716 15 15v180c0 8.284-6.716 15-15 15h-75c-8.284 0-15-6.716-15-15v-180c0-8.28 6.72-15 15-15z" fill="#19c85b" data-original="#000000" style="" class=""/><g><path d="m512.011 497.022c0 8.284-6.716 15-15 15h-76c-8.284 0-15-6.716-15-15v-240c0-8.284 6.716-15 15-15h76c8.284 0 15 6.716 15 15z" fill="#19c85b" data-original="#000000" style="" class=""/></g><g><path d="m76.011 332.022c-8.284 0-15-6.716-15-15 0-24.813 20.187-45 45-45h60c8.271 0 15-6.729 15-15 0-24.813 20.187-45 45-45h60c8.271 0 15-6.729 15-15 0-8.284 6.716-15 15-15s15 6.716 15 15c0 24.813-20.187 45-45 45h-60c-8.271 0-15 6.729-15 15 0 24.813-20.187 45-45 45h-60c-8.271 0-15 6.729-15 15 0 8.285-6.716 15-15 15z" fill="#19c85b" data-original="#000000" style="" class=""/></g></g></g></svg>
